<?xml version="1.0" encoding="UTF-8" standalone="no"?>
<!-- Created with Inkscape (http://www.inkscape.org/) -->

<svg
   version="1.1"
   id="svg1"
   width="672"
   height="936"
   viewBox="0 0 672 936"
   sodipodi:docname="Card Back.svg"
   inkscape:version="1.4.2 (f4327f4, 2025-05-13)"
   xmlns:inkscape="http://www.inkscape.org/namespaces/inkscape"
   xmlns:sodipodi="http://sodipodi.sourceforge.net/DTD/sodipodi-0.dtd"
   xmlns="http://www.w3.org/2000/svg"
   xmlns:svg="http://www.w3.org/2000/svg">
  <defs
     id="defs1">
    <clipPath
       clipPathUnits="userSpaceOnUse"
       id="clipPath2">
      <path
         d="M 0,702 H 504 V 0 H 0 Z"
         transform="translate(-482.02001)"
         id="path2" />
    </clipPath>
    <clipPath
       clipPathUnits="userSpaceOnUse"
       id="clipPath5">
      <path
         d="M 0,702 H 504 V 0 H 0 Z"
         transform="translate(-450.36001,-351.00001)"
         id="path5" />
    </clipPath>
    <clipPath
       clipPathUnits="userSpaceOnUse"
       id="clipPath7">
      <path
         d="M 0,702 H 504 V 0 H 0 Z"
         transform="translate(-252.00001,-253.55761)"
         id="path7" />
    </clipPath>
    <clipPath
       clipPathUnits="userSpaceOnUse"
       id="clipPath9">
      <path
         d="M 0,702 H 504 V 0 H 0 Z"
         transform="translate(-252.00001,-253.55761)"
         id="path9" />
    </clipPath>
    <clipPath
       clipPathUnits="userSpaceOnUse"
       id="clipPath11">
      <path
         d="M 0,702 H 504 V 0 H 0 Z"
         transform="translate(-252.00001,-253.55761)"
         id="path11" />
    </clipPath>
    <clipPath
       clipPathUnits="userSpaceOnUse"
       id="clipPath13">
      <path
         d="M 0,702 H 504 V 0 H 0 Z"
         transform="translate(-252.00001,-253.55761)"
         id="path13" />
    </clipPath>
    <clipPath
       clipPathUnits="userSpaceOnUse"
       id="clipPath15">
      <path
         d="M 0,702 H 504 V 0 H 0 Z"
         transform="translate(-249.93711,-435.84251)"
         id="path15" />
    </clipPath>
  </defs>
  <sodipodi:namedview
     id="namedview1"
     pagecolor="#ffffff"
     bordercolor="#000000"
     borderopacity="0.25"
     inkscape:showpageshadow="2"
     inkscape:pageopacity="0.0"
     inkscape:pagecheckerboard="0"
     inkscape:deskcolor="#d1d1d1"
     inkscape:zoom="0.8707265"
     inkscape:cx="335.92638"
     inkscape:cy="468"
     inkscape:window-width="1920"
     inkscape:window-height="1017"
     inkscape:window-x="1912"
     inkscape:window-y="-8"
     inkscape:window-maximized="1"
     inkscape:current-layer="layer-MC2">
    <inkscape:page
       x="0"
       y="0"
       inkscape:label="1"
       id="page1"
       width="672"
       height="936"
       margin="0"
       bleed="0" />
  </sodipodi:namedview>
  <g
     id="layer-MC0"
     inkscape:groupmode="layer"
     inkscape:label="Card Border">
    <path
       id="path1"
       d="m 0,0 h -460.04 c -12.139,0 -21.98,9.841 -21.98,21.98 v 658.04 c 0,12.139 9.841,21.98 21.98,21.98 H 0 c 12.139,0 21.98,-9.841 21.98,-21.98 V 21.98 C 21.98,9.841 12.139,0 0,0"
       style="fill:#16130e;fill-opacity:1;fill-rule:nonzero;stroke:none"
       transform="matrix(1.3333333,0,0,-1.3333333,642.69333,936)"
       clip-path="url(#clipPath2)" />
  </g>
  <g
     id="layer-MC1"
     inkscape:groupmode="layer"
     inkscape:label="Card Back">
    <path
       id="path3"
       d="M 480.06,29.16 H 23.94 v 643.68 h 456.12 z"
       style="fill:#000000;fill-opacity:1;fill-rule:nonzero;stroke:none"
       transform="matrix(1.3333333,0,0,-1.3333333,0,936)" />
  </g>
  <g
     id="layer-MC2"
     inkscape:groupmode="layer"
     inkscape:label="Card Oval">
    <path
       id="path4"
       d="m 0,0 c 0,-161.941 -88.809,-293.22 -198.36,-293.22 -109.551,0 -198.36,131.279 -198.36,293.22 0,161.941 88.809,293.22 198.36,293.22 C -88.809,293.22 0,161.941 0,0"
       style="fill:#4b0082;fill-opacity:1;fill-rule:nonzero;stroke:none"
       transform="matrix(1.3333333,0,0,-1.3333333,600.48,468)"
       clip-path="url(#clipPath5)" />
  </g>
  <g
     id="layer-MC3"
     inkscape:groupmode="layer"
     inkscape:label="Eye">
    <path
       id="path6"
       d="m 0,0 c -53.803,0 -97.434,43.647 -97.434,97.45 0,53.803 43.607,97.435 97.434,97.435 53.827,0 97.434,-43.608 97.434,-97.435 C 97.434,43.623 53.827,0 0,0 Z"
       style="fill:#ffffff;fill-opacity:1;fill-rule:nonzero;stroke:none"
       transform="matrix(1.3333333,0,0,-1.3333333,336,597.9232)"
       clip-path="url(#clipPath7)" />
    <path
       id="path8"
       d="m 0,0 c -53.803,0 -97.434,43.647 -97.434,97.45 0,53.803 43.607,97.435 97.434,97.435 53.827,0 97.434,-43.608 97.434,-97.435 C 97.434,43.623 53.827,0 0,0 Z"
       style="fill:none;stroke:#ffffff;stroke-width:6;stroke-linecap:butt;stroke-linejoin:miter;stroke-miterlimit:10;stroke-dasharray:none;stroke-opacity:1"
       transform="matrix(1.3333333,0,0,-1.3333333,336,597.9232)"
       clip-path="url(#clipPath9)" />
    <path
       id="path10"
       d="m 0,0 c -53.803,0 -97.434,43.647 -97.434,97.45 0,53.803 43.607,97.435 97.434,97.435 53.827,0 97.434,-43.608 97.434,-97.435 C 97.434,43.623 53.827,0 0,0 Z M 10.346,215.26 C -72.743,221.267 -145.906,164.512 -188.442,97.458 V 97.419 C -145.898,30.365 -72.743,-26.39 10.346,-20.383 85.993,-17.321 147.516,37.807 188.442,97.434 147.524,157.061 85.993,212.198 10.346,215.252 Z"
       style="fill:#000000;fill-opacity:1;fill-rule:nonzero;stroke:none"
       transform="matrix(1.3333333,0,0,-1.3333333,336,597.9232)"
       clip-path="url(#clipPath11)" />
    <path
       id="path12"
       d="m 0,0 c -53.803,0 -97.434,43.647 -97.434,97.45 0,53.803 43.607,97.435 97.434,97.435 53.827,0 97.434,-43.608 97.434,-97.435 C 97.434,43.623 53.827,0 0,0 Z M 10.346,215.26 C -72.743,221.267 -145.906,164.512 -188.442,97.458 V 97.419 C -145.898,30.365 -72.743,-26.39 10.346,-20.383 85.993,-17.321 147.516,37.807 188.442,97.434 147.524,157.061 85.993,212.198 10.346,215.252 Z"
       style="fill:none;stroke:#ffffff;stroke-width:6;stroke-linecap:butt;stroke-linejoin:miter;stroke-miterlimit:10;stroke-dasharray:none;stroke-opacity:1"
       transform="matrix(1.3333333,0,0,-1.3333333,336,597.9232)"
       clip-path="url(#clipPath13)" />
    <path
       id="path14"
       d="m 0,0 c -5.435,-26.247 -12.187,-54.692 5.237,-77.836 19.074,-19.575 42.576,1.475 55.096,17.233 11.148,-29.564 16.353,-66.355 -9.989,-89.841 -34.451,-36.514 -102.465,-18.21 -114.026,30.635 -9.568,49.383 24.24,94.117 63.666,119.825 z"
       style="fill:#000000;fill-opacity:1;fill-rule:nonzero;stroke:#ffffff;stroke-width:6;stroke-linecap:butt;stroke-linejoin:miter;stroke-miterlimit:10;stroke-dasharray:none;stroke-opacity:1"
       transform="matrix(1.3333333,0,0,-1.3333333,333.24947,354.87667)"
       clip-path="url(#clipPath15)" />
  </g>
</svg>
