<?xml version="1.0" encoding="UTF-8" standalone="no"?>
<svg
   version="1.1"
   viewBox="0 0 500 500"
   id="svg1"
   sodipodi:docname="favicon.svg"
   inkscape:version="1.4.2 (f4327f4, 2025-05-13)"
   xmlns:inkscape="http://www.inkscape.org/namespaces/inkscape"
   xmlns:sodipodi="http://sodipodi.sourceforge.net/DTD/sodipodi-0.dtd"
   xmlns="http://www.w3.org/2000/svg"
   xmlns:svg="http://www.w3.org/2000/svg">
  <sodipodi:namedview
     id="namedview1"
     pagecolor="#ffffff"
     bordercolor="#000000"
     borderopacity="0.25"
     inkscape:showpageshadow="2"
     inkscape:pageopacity="0.0"
     inkscape:pagecheckerboard="0"
     inkscape:deskcolor="#d1d1d1"
     inkscape:zoom="1.63"
     inkscape:cx="250"
     inkscape:cy="250"
     inkscape:window-width="1920"
     inkscape:window-height="1017"
     inkscape:window-x="1912"
     inkscape:window-y="-8"
     inkscape:window-maximized="1"
     inkscape:current-layer="svg1" />
  <!-- Generator: Adobe Illustrator 30.0.0, SVG Export Plug-In . SVG Version: 2.1.1 Build 123)  -->
  <defs
     id="defs1">
    <style
       id="style1">
      .st0, .st1 {
        fill: #4d2d7c;
      }

      .st2 {
        fill: #fff;
      }

      .st2, .st3 {
        stroke: #fff;
        stroke-miterlimit: 10;
        stroke-width: 6px;
      }

      .st3 {
        fill: #231f20;
      }

      .st1 {
        display: none;
      }
    </style>
  </defs>
  <g
     id="Background">
    <rect
       id="Square"
       class="st0"
       x="0"
       y="0"
       width="500"
       height="500"
       rx="75"
       ry="75"
       style="fill:#4b0082;fill-opacity:1" />
    <circle
       id="Ellipse"
       class="st1"
       cx="250"
       cy="250"
       r="250" />
  </g>
  <g
     id="Eye">
    <path
       id="Eye_Background"
       class="st2"
       d="M250,372.81c-67.81,0-122.8-55.01-122.8-122.82s54.96-122.8,122.8-122.8,122.8,54.96,122.8,122.8-54.96,122.82-122.8,122.82Z" />
    <path
       id="Eris"
       class="st3"
       d="M 263.04,101.51 C 158.32,93.94 66.11,165.47 12.5,249.98 v 0.05 C 66.12,334.54 158.32,406.07 263.04,398.5 358.38,394.64 435.92,325.16 487.5,250.01 435.93,174.86 358.38,105.37 263.04,101.52 Z M 250,372.81 c -67.81,0 -122.8,-55.01 -122.8,-122.82 0,-67.81 54.96,-122.8 122.8,-122.8 67.84,0 122.8,54.96 122.8,122.8 0,67.84 -54.96,122.82 -122.8,122.82 z"
       style="display:inline;fill:#000000;fill-opacity:1" />
    <path
       id="Pupil"
       class="st3"
       d="M247.4,143.07c-6.85,33.08-15.36,68.93,6.6,98.1,24.04,24.67,53.66-1.86,69.44-21.72,14.05,37.26,20.61,83.63-12.59,113.23-43.42,46.02-129.14,22.95-143.71-38.61-12.06-62.24,30.55-118.62,80.24-151.02l.02.02Z"
       style="fill:#000000;fill-opacity:1" />
  </g>
</svg>
